<?xml version="1.0" encoding="UTF-8"?>
<svg id="Layer_2" data-name="Layer 2" xmlns="http://www.w3.org/2000/svg" viewBox="0 0 80 80">
  <defs>
    <style>
      .cls-1 {
        fill: #fff;
      }
    </style>
  </defs>
  <path class="cls-1" d="m74.29,50.11c-1.64-1.9-4.52-2.4-6.88-1.2l-9.02,4.81c-.21-.36-.45-.69-.74-1-1.03-1.09-2.49-1.72-3.99-1.72h-14.01c-1.08,0-2.07-.39-2.8-1.1-2.87-2.8-7.27-4.4-12.08-4.4-3.34,0-6.51.78-9.15,2.27-.56.31-1.23.48-1.92.48H5.51c-.76,0-1.38.62-1.38,1.38s.62,1.38,1.38,1.38h8.18c1.16,0,2.29-.29,3.27-.83,2.24-1.25,4.94-1.92,7.81-1.92,4.04,0,7.84,1.35,10.16,3.62,1.25,1.22,2.92,1.88,4.72,1.88h14.01c.76,0,1.47.3,2,.86.52.55.79,1.28.75,2.04-.07,1.43-1.41,2.6-2.98,2.6h-20.4c-.76,0-1.38.62-1.38,1.38s.62,1.38,1.38,1.38h20.4c3.06,0,5.58-2.29,5.73-5.21,0-.12-.02-.24-.02-.36l9.55-5.09c1.22-.63,2.7-.39,3.53.56.56.65.8,1.46.67,2.28-.12.81-.59,1.53-1.33,1.99l-23.56,15.8c-1.64,1.02-3.65,1.3-5.48.79l-23.6-7.32c-1.45-.45-2.96-.68-4.48-.68h-6.17c-.76,0-1.38.62-1.38,1.38s.62,1.38,1.38,1.38h6.17c1.25,0,2.48.19,3.67.56l23.63,7.33c.86.24,1.73.36,2.61.36,1.79,0,3.57-.5,5.14-1.48l23.56-15.8c1.38-.86,2.32-2.28,2.56-3.89.24-1.61-.23-3.25-1.31-4.49Zm-38.69-16.1c.97.72,1.55,1.92,1.55,3.22v6.9c0,2.28,1.85,4.13,4.13,4.13h8.25c2.28,0,4.13-1.85,4.13-4.13v-6.9c0-1.3.58-2.5,1.55-3.22,4.2-3.1,6.71-8.06,6.71-13.27,0-9.1-7.41-16.51-16.51-16.51s-16.51,7.4-16.51,16.51c0,5.21,2.51,10.16,6.71,13.27Zm15.3,10.12c0,.76-.62,1.38-1.38,1.38h-8.25c-.76,0-1.38-.62-1.38-1.38v-5.5h11v5.5Zm-7.07-18.59l-2.88-4.79h8.9l-2.88,4.79c-.13.21-.2.46-.2.71v9.63h-2.75v-9.63c0-.25-.07-.49-.2-.71Zm1.57-18.55c7.59,0,13.76,6.17,13.76,13.76,0,4.4-2.04,8.43-5.59,11.05-1.31.97-2.2,2.44-2.52,4.08h-1.52v-9.25l3.93-6.55c.26-.42.26-.95.02-1.39-.24-.43-.7-.7-1.2-.7h-13.76c-.5,0-.95.27-1.2.7-.24.43-.24.96.02,1.39l3.93,6.55v9.25h-1.52c-.32-1.64-1.21-3.11-2.52-4.08-3.55-2.62-5.59-6.65-5.59-11.05,0-7.58,6.17-13.76,13.76-13.76Zm-20.94,3.25l2.38,1.38c.22.12.45.18.69.18.48,0,.94-.25,1.19-.69.38-.66.15-1.5-.5-1.88l-2.38-1.38c-.66-.38-1.5-.15-1.88.5-.38.66-.15,1.5.5,1.88Zm39.5,19.63c-.66-.38-1.5-.16-1.88.5-.38.66-.15,1.5.5,1.88l2.38,1.38c.22.12.45.18.69.18.48,0,.94-.25,1.19-.69.38-.66.15-1.5-.5-1.88l-2.38-1.38Zm-44.53-12.31l5.42.96c.08.01.16.02.24.02.66,0,1.24-.47,1.35-1.14.13-.75-.37-1.46-1.12-1.59l-5.42-.96c-.75-.14-1.46.37-1.59,1.11-.13.75.37,1.46,1.12,1.59Zm51.72,9.1c.66,0,1.24-.47,1.35-1.14.13-.75-.37-1.46-1.12-1.59l-5.42-.96c-.75-.14-1.46.37-1.59,1.12-.13.75.37,1.46,1.12,1.59l5.42.96c.08.01.16.02.24.02Zm-51.48,0c.08,0,.16,0,.24-.02l5.42-.96c.75-.13,1.25-.85,1.12-1.59-.13-.75-.84-1.25-1.59-1.12l-5.42.96c-.75.13-1.25.84-1.12,1.59.12.67.7,1.14,1.35,1.14Zm44.71-9.26c.12.67.7,1.14,1.35,1.14.08,0,.16,0,.24-.02l5.42-.96c.75-.13,1.25-.84,1.12-1.59-.13-.75-.85-1.25-1.59-1.11l-5.42.96c-.75.13-1.25.85-1.12,1.59Zm-37.52,12.47l-2.38,1.38c-.66.38-.88,1.22-.5,1.88.26.44.72.69,1.19.69.23,0,.47-.06.69-.18l2.38-1.38c.66-.38.88-1.22.5-1.88-.38-.66-1.22-.88-1.88-.5ZM63.27,11.8c.23,0,.47-.06.69-.18l2.38-1.38c.66-.38.88-1.22.5-1.88-.38-.66-1.22-.89-1.88-.5l-2.38,1.38c-.66.38-.88,1.22-.5,1.88.26.44.72.69,1.19.69Z"/>
</svg>