<?xml version="1.0" encoding="UTF-8"?>
<svg id="Layer_2" data-name="Layer 2" xmlns="http://www.w3.org/2000/svg" viewBox="0 0 80 80">
  <defs>
    <style>
      .cls-1 {
        fill: #fff;
      }
    </style>
  </defs>
  <path class="cls-1" d="m78.37,31.37c-.51-.51-1.33-.51-1.83,0l-5.56,5.56-15.01-15.01,5.56-5.56c.5-.51.5-1.32,0-1.83-.51-.51-1.32-.51-1.83,0h0s-6.48,6.48-6.48,6.48c-.25.25-.38.59-.38.92h-25.92c0-.35-.14-.67-.38-.92l-6.48-6.48c-.51-.51-1.33-.51-1.83,0-.51.51-.51,1.33,0,1.83l5.56,5.56-15.01,15.01-5.56-5.56c-.51-.51-1.33-.51-1.83,0-.51.51-.51,1.32,0,1.83l6.48,6.48c.24.25.57.38.92.38s.67-.14.92-.38l1.67-1.67,5.3,5.29-2.55,2.55c-.97.97-1.45,2.24-1.45,3.51,0,1.27.49,2.54,1.45,3.51.76.76,1.72,1.22,2.72,1.38-.18.52-.28,1.05-.28,1.59,0,1.27.49,2.54,1.45,3.51.96.97,2.24,1.45,3.51,1.45h.01c.08,0,.16-.02.24-.02,0,.08-.02.16-.02.24,0,1.26.49,2.54,1.45,3.51.96.97,2.24,1.46,3.51,1.45h.01c1.06,0,2.12-.37,3.01-1.05.22.8.62,1.56,1.25,2.19.96.97,2.24,1.45,3.51,1.45s2.54-.49,3.51-1.45l1.74-1.74c.05-.05.09-.12.14-.17l1.91,1.91c.96.97,2.24,1.45,3.51,1.45s2.54-.49,3.51-1.45c.63-.63,1.03-1.39,1.25-2.19.89.69,1.95,1.05,3.02,1.05h.01c1.26,0,2.53-.49,3.5-1.45.97-.97,1.46-2.25,1.45-3.51,0-.08-.02-.16-.02-.24.08,0,.16.02.25.02,1.27,0,2.54-.49,3.51-1.45.97-.97,1.46-2.24,1.45-3.51,0-.54-.11-1.08-.28-1.59.99-.16,1.95-.61,2.72-1.38.96-.97,1.45-2.24,1.45-3.51s-.49-2.54-1.45-3.51l-2.54-2.54,5.29-5.3,1.68,1.68c.24.24.57.38.91.38s.67-.14.92-.38l6.48-6.48c.51-.51.51-1.33,0-1.83Zm-60.75,20.35c-.61,0-1.21-.23-1.67-.69-.46-.47-.69-1.07-.7-1.68,0-.61.23-1.21.7-1.67l3.04-3.04c.47-.47,1.06-.69,1.67-.69.61,0,1.21.23,1.68.69.46.46.69,1.06.69,1.67s-.23,1.21-.7,1.68l-1.48,1.48-1.57,1.57c-.46.46-1.06.68-1.66.68Zm5.56,5.79c-.47.46-1.06.69-1.67.69-.61,0-1.21-.23-1.67-.69-.47-.47-.69-1.07-.7-1.68,0-.61.23-1.21.69-1.67l1.3-1.3h0l3.04-3.04s0,0,0,0c.47-.46,1.06-.69,1.67-.69.61,0,1.21.23,1.67.7.47.47.69,1.06.69,1.68s-.23,1.2-.69,1.67c0,0,0,0,0,0l-4.33,4.33s0,0,0,0Zm7.78,2.59s0,0,0,0l-2.59,2.59c-.47.47-1.07.69-1.68.69s-1.21-.23-1.67-.69c-.47-.47-.69-1.07-.7-1.68,0-.61.23-1.2.69-1.67,0,0,0,0,0,0l2.17-2.17,2.17-2.17c.47-.46,1.06-.69,1.67-.69s1.21.23,1.68.69c.46.46.69,1.06.69,1.68,0,.61-.23,1.21-.7,1.68l-1.04,1.04-.7.69Zm6.92,3.45l-1.74,1.74c-.47.46-1.07.69-1.67.69s-1.21-.23-1.68-.69c-.46-.47-.69-1.07-.69-1.67s.23-1.21.69-1.67l.5-.5,1.24-1.24s0,0,0,0c.47-.46,1.06-.68,1.67-.69.61,0,1.21.23,1.68.69.47.47.69,1.07.69,1.68s-.23,1.21-.69,1.68Zm25.91-15.87c.47.46.69,1.06.69,1.67s-.23,1.21-.69,1.68c-.46.46-1.06.69-1.67.69-.61,0-1.2-.23-1.67-.69h0s0-.01,0-.01l-5.4-5.4c-.5-.5-1.33-.5-1.83,0-.5.51-.5,1.33,0,1.83l5.4,5.41s0,0,0,0l1.3,1.29c.46.47.69,1.06.69,1.68s-.23,1.21-.69,1.68c-.47.46-1.07.69-1.68.69-.61,0-1.21-.23-1.67-.69l-6.7-6.7c-.51-.5-1.33-.5-1.83,0-.51.5-.51,1.32,0,1.83l6.7,6.7s0,0,0,0c.46.46.69,1.06.69,1.67,0,.61-.23,1.21-.69,1.68-.47.47-1.07.69-1.68.69s-1.21-.23-1.68-.69l-6.7-6.7c-.51-.5-1.33-.5-1.83,0-.51.51-.51,1.33,0,1.83l4.1,4.11s0,0,0,0c.46.46.69,1.06.69,1.67,0,.61-.23,1.21-.69,1.67-.47.46-1.07.69-1.68.69s-1.21-.23-1.67-.69l-2.52-2.52c.05-.3.09-.6.09-.9,0-1.26-.48-2.54-1.45-3.51-.97-.97-2.25-1.46-3.51-1.45-.08,0-.16.02-.24.02,0-.08.02-.16.02-.25,0-1.26-.49-2.54-1.45-3.51-.97-.97-2.24-1.45-3.51-1.45-.08,0-.16.02-.25.02,0-.08.02-.16.02-.25,0-1.26-.49-2.54-1.45-3.51-.97-.97-2.24-1.46-3.51-1.45-.08,0-.16.02-.25.02,0-.08.02-.16.02-.25,0-1.27-.49-2.54-1.45-3.51-.97-.97-2.24-1.45-3.51-1.45-.64,0-1.29.13-1.9.38l-5.56-5.56,11.66-11.66h9.29l-7.51,7.51c-1.15,1.15-1.72,2.66-1.72,4.16s.58,3.01,1.72,4.16c1.15,1.14,2.66,1.72,4.16,1.72s3.01-.58,4.15-1.72l4.33-4.33c1.77-1.77,4.09-2.65,6.41-2.66,2.32,0,4.64.89,6.41,2.66l11.68,11.68Zm-2.54-6.21l-7.3-7.3c-2.27-2.28-5.27-3.42-8.25-3.42-2.98,0-5.97,1.14-8.24,3.42l-4.33,4.33c-.65.64-1.48.96-2.32.96s-1.68-.32-2.33-.96c-.64-.65-.96-1.48-.96-2.32s.32-1.68.96-2.32l9.34-9.34h17.07l11.66,11.66-5.3,5.29Zm-52.48-9.18c1.43,0,2.59-1.16,2.59-2.59s-1.16-2.59-2.59-2.59-2.59,1.16-2.59,2.59,1.16,2.59,2.59,2.59Zm62.2,0c1.43,0,2.59-1.16,2.59-2.59s-1.16-2.59-2.59-2.59-2.59,1.16-2.59,2.59,1.16,2.59,2.59,2.59Z"/>
</svg>