<?xml version="1.0" encoding="UTF-8"?>
<svg id="Layer_2" data-name="Layer 2" xmlns="http://www.w3.org/2000/svg" viewBox="0 0 80 80">
  <defs>
    <style>
      .cls-1 {
        stroke-linecap: round;
      }

      .cls-1, .cls-2 {
        fill: none;
        stroke: #fff;
        stroke-linejoin: round;
        stroke-width: 2px;
      }
    </style>
  </defs>
  <polygon class="cls-2" points="48.81 30.92 39.88 39.84 30.96 30.92 48.81 30.92"/>
  <line class="cls-2" x1="39.88" y1="60.66" x2="39.88" y2="39.84"/>
  <path class="cls-2" d="m48.81,62.15v10.41c0,2.46-2,4.46-4.46,4.46h-8.92c-2.46,0-4.46-2-4.46-4.46v-10.41"/>
  <line class="cls-1" x1="29.47" y1="72.56" x2="50.3" y2="71.08"/>
  <line class="cls-1" x1="29.47" y1="68.1" x2="50.3" y2="66.61"/>
  <line class="cls-1" x1="8.65" y1="27.94" x2="2.7" y2="27.94"/>
  <line class="cls-1" x1="17.8" y1="5.86" x2="15.69" y2="3.75"/>
  <line class="cls-1" x1="12.83" y1="12.32" x2="7.68" y2="9.35"/>
  <line class="cls-1" x1="12.83" y1="43.56" x2="7.68" y2="46.53"/>
  <line class="cls-1" x1="71.12" y1="27.94" x2="77.07" y2="27.94"/>
  <line class="cls-1" x1="61.97" y1="50.03" x2="64.07" y2="52.13"/>
  <line class="cls-1" x1="17.8" y1="50.03" x2="15.69" y2="52.13"/>
  <line class="cls-1" x1="61.97" y1="5.86" x2="64.07" y2="3.75"/>
  <line class="cls-1" x1="9.71" y1="36.03" x2="6.84" y2="36.8"/>
  <line class="cls-1" x1="70.05" y1="19.86" x2="72.93" y2="19.09"/>
  <line class="cls-1" x1="9.71" y1="19.86" x2="6.84" y2="19.09"/>
  <line class="cls-1" x1="70.05" y1="36.03" x2="72.93" y2="36.8"/>
  <line class="cls-1" x1="66.93" y1="43.56" x2="72.09" y2="46.53"/>
  <line class="cls-1" x1="66.93" y1="12.32" x2="72.09" y2="9.35"/>
  <path class="cls-2" d="m65.17,27.94c0-13.97-11.32-25.29-25.29-25.29S14.6,13.98,14.6,27.94c0,8.91,4.61,16.73,11.57,21.24,1.12.72,1.82,1.97,1.82,3.3v6.7c0,1.64,1.33,2.97,2.97,2.97h17.85c1.64,0,2.97-1.33,2.97-2.97v-6.7c0-1.33.7-2.58,1.82-3.3,6.96-4.5,11.57-12.33,11.57-21.24Z"/>
  <path class="cls-1" d="m23.52,27.94c0-9.03,7.33-16.36,16.36-16.36"/>
</svg>